<svg xmlns="http://www.w3.org/2000/svg" fill="none" viewBox="0 0 90 28" height="28" width="90">
<path fill="black" d="M87.716 7.3148C88.9479 7.3148 90.0002 8.39275 90.0002 10.7796C90.0002 14.9631 86.638 21.4565 82.8652 21.4565C81.8129 21.4565 80.9403 21.0202 80.35 20.3529L79.0924 24.3823C78.5791 25.9736 78.8101 26.3072 81.0686 26.3072L80.7863 26.9232H74.1133L74.2929 26.3072C75.4992 26.3072 76.1152 25.9993 76.6028 24.3823L81.1456 9.90701C80.2473 11.5239 78.8871 13.2949 77.3471 14.3215L77.0135 13.8595C79.4774 12.1912 81.4793 8.8034 82.1979 6.54484V6.57051L82.6342 5.18457H84.9698L82.2749 13.2179H82.5059C83.6865 10.523 85.5344 7.3148 87.716 7.3148ZM82.5829 20.4042C84.9184 20.4042 87.485 14.5781 87.485 11.2673C87.485 9.85568 87.1513 9.18838 86.484 9.18838C84.9184 9.18838 82.4802 13.5002 81.4793 16.734L81.0943 17.966C81.0686 19.3519 81.5819 20.4042 82.5829 20.4042Z"></path>
<path fill="black" d="M70.068 21.6351C67.8095 21.6351 66.2695 19.9412 66.2695 17.2206C66.2695 12.3442 69.9654 7.28809 73.7638 7.28809C76.0481 7.28809 77.588 9.059 77.588 11.7539C77.588 16.6046 73.8922 21.6351 70.068 21.6351ZM70.2733 20.5315C72.4806 20.5315 75.1754 15.0647 75.1754 10.9326C75.1754 9.36699 74.6878 8.36603 73.5842 8.36603C71.377 8.36603 68.7078 13.9354 68.7078 18.0162C68.7078 19.5562 69.1697 20.5315 70.2733 20.5315Z"></path>
<path fill="black" d="M60.1737 21.2758H57.6328L60.8923 11.4459C61.1746 10.5989 61.5083 9.52098 61.5083 9.16166C61.5083 8.82801 61.38 8.72535 61.1746 8.72535C60.4047 8.72535 59.2754 10.0856 58.3001 11.7025H57.6841C58.8648 9.41832 60.7897 7.36508 62.6632 7.36508C63.5872 7.36508 64.0235 8.03238 64.0235 8.77668C64.0235 9.44398 63.6385 10.3423 63.2022 11.4459L61.688 15.5524H61.9189C64.1262 9.8033 66.3334 7.28809 68.4636 7.28809C69.0796 7.28809 69.4133 7.59607 69.4133 8.16071C69.4133 8.95634 68.746 9.77763 68.053 9.77763C67.5397 9.77763 67.283 9.49532 66.744 9.49532C65.5634 9.49532 63.3819 11.8309 60.1737 21.2758Z"></path>
<path fill="black" d="M54.2802 20.1217C55.2298 20.1217 56.3591 18.5048 57.2317 16.6312H57.822C56.8981 18.9154 55.2041 21.5077 53.1252 21.5077C51.765 21.5077 51.303 20.789 51.303 19.8651C51.303 19.2748 51.5596 18.6588 51.919 17.6065L52.8686 14.809H52.5093C51.2773 17.5038 48.9418 21.636 46.6575 21.636C45.1433 21.636 44.3477 20.1987 44.3477 18.1968C44.3477 13.6284 48.4798 7.31465 52.0473 7.31465C53.7669 7.31465 54.4342 8.57226 54.3572 10.2149H54.4085L56.7441 3.28518C57.2317 1.84791 56.6927 1.3346 54.8962 1.3346L55.0502 0.744299C57.9503 0.744299 59.1566 0.56464 59.8239 0L60.1319 0.179659L54.3315 17.6835C54.1262 18.2738 53.8182 19.1721 53.8182 19.5314C53.8182 19.9164 53.9209 20.1217 54.2802 20.1217ZM47.7355 19.7881C49.2498 19.7881 51.9446 15.7329 52.9456 12.8584C53.2279 12.0371 53.4332 11.2158 53.4332 10.3688C53.4332 9.26523 53.1252 8.62359 52.2783 8.62359C49.9941 8.62359 46.8885 14.2443 46.8885 17.8888C46.8885 19.0951 47.1195 19.7881 47.7355 19.7881Z"></path>
<path fill="black" d="M45.3804 7.67285V8.28882C44.3024 8.28882 43.8404 8.62247 43.4041 10.2137L40.1446 21.5065H38.6047L36.3718 12.7803L34.0106 21.5065H32.3937L29.0315 10.2137C28.5438 8.62247 28.0819 8.28882 27.0039 8.28882V7.67285H32.3937V8.28882C31.1617 8.28882 31.2387 8.62247 31.7007 10.2137L33.8823 17.8107H33.9849L35.8585 10.804L35.7045 10.2394C35.2938 8.62247 34.9089 8.28882 33.9849 8.28882V7.67285H39.349V8.28882C37.9631 8.28882 37.9631 8.64814 38.3224 10.2651L40.0676 17.8107H40.1703L42.3262 10.2137C42.7882 8.62247 42.8138 8.28882 41.1712 8.28882V7.67285H45.3804Z"></path>
<path fill="black" d="M22.897 21.6863C19.5605 21.6863 17.3789 18.7347 17.3789 14.5256C17.3789 10.3935 19.4065 7.21094 22.897 7.21094C26.2078 7.21094 28.4151 10.1625 28.4151 14.3716C28.4151 18.5037 26.3618 21.6863 22.897 21.6863ZM23.282 20.557C25.1042 20.557 25.8228 18.1444 25.8228 15.8859C25.8228 12.3954 24.7706 8.34022 22.512 8.34022C20.6897 8.34022 19.9455 10.7528 19.9455 13.0113C19.9455 16.5018 21.0234 20.557 23.282 20.557Z"></path>
<path fill="black" d="M15.9446 0.486269V18.6317C15.9446 20.2743 16.1756 20.6593 17.7412 20.6593V21.2753H11.6328V20.6593C13.1984 20.6593 13.4551 20.2743 13.4551 18.6317V3.79711C13.4551 2.15452 13.4551 1.82087 11.9151 2.59084L11.6585 2.0262L15.5596 0.126953L15.9446 0.486269Z"></path>
<path fill="black" d="M5.67207 19.2221H8.64926C11.3185 19.2221 12.5247 19.992 12.5247 21.9426C12.5247 24.7915 9.44489 27.3323 5.13309 27.3323C2.38689 27.3323 0 26.3314 0 24.2268C0 22.7639 1.07795 21.7886 2.69487 21.07C1.64259 20.6593 1.18061 19.9407 1.18061 19.0681C1.18061 17.8875 2.00191 17.0405 3.15685 16.3219C1.89924 15.4749 1.18061 14.012 1.18061 12.2411C1.18061 9.36653 3.02852 7.2363 5.98005 7.2363C6.95534 7.2363 7.8023 7.46729 8.52093 7.9036C9.54755 7.3133 10.6512 7.05664 11.4468 7.05664C12.1911 7.05664 12.3964 7.41596 12.3964 7.8266C12.3964 8.31425 12.0884 8.69923 11.4725 8.69923C10.4972 8.69923 9.8042 8.18592 9.05991 8.28858C10.0865 9.16121 10.6768 10.4958 10.6768 12.1641C10.6768 15.0899 8.82892 17.1175 5.95439 17.1175C5.15876 17.1175 4.44012 16.9635 3.82415 16.6812C3.31084 17.0918 2.97719 17.5025 2.97719 18.0158C2.97719 18.6831 3.18252 19.2221 5.67207 19.2221ZM5.6464 8.21159C4.2348 8.21159 3.69583 9.72585 3.69583 11.3428C3.69583 13.4987 4.38879 16.1165 6.26237 16.1165C7.59697 16.1165 8.18728 14.8333 8.18728 13.1137C8.18728 10.8808 7.41732 8.21159 5.6464 8.21159ZM5.74906 25.7924C9.00857 25.7924 11.0875 24.1755 11.0875 22.7382C11.0875 21.7373 10.3945 21.5063 8.57226 21.5063H5.38975C4.67111 21.5063 4.05514 21.455 3.54183 21.3266C2.66921 22.0196 2.05324 22.7896 2.05324 23.6109C2.05324 24.6888 3.05419 25.7924 5.74906 25.7924Z"></path>
</svg>
