<?xml version="1.0" encoding="utf-8"?>
<svg xmlns="http://www.w3.org/2000/svg" fill="none" height="370" viewBox="0 0 386 370" width="386">
<path d="M143.48 369.983C139.98 369.983 136.54 369.543 133.26 368.483C122.04 364.843 113.94 354.823 106.14 345.163C100.92 338.703 95.52 332.023 89.34 327.523C83.06 322.943 74.96 319.823 67.12 316.823C55.58 312.383 43.66 307.783 36.82 298.383C30.06 289.103 29.36 276.403 28.68 264.103C28.22 255.663 27.74 246.943 25.3 239.443C23 232.343 18.58 225.563 13.9 218.383C7.06 207.903 0 197.043 0 184.983C0 172.923 7.06 162.063 13.9 151.583C18.58 144.403 23 137.643 25.3 130.523C27.74 123.023 28.22 114.303 28.68 105.863C29.36 93.5829 30.06 80.8829 36.82 71.5829C43.66 62.1829 55.58 57.6029 67.12 53.1629C74.96 50.1429 83.04 47.0229 89.34 42.4629C95.52 37.9629 100.92 31.2829 106.14 24.8229C113.96 15.1429 122.04 5.14293 133.26 1.50293C143.96 -1.97707 156.12 1.26293 167.9 4.38293C176.18 6.58293 184.76 8.84293 192.86 8.84293C200.96 8.84293 209.54 6.56293 217.82 4.38293C229.6 1.26293 241.78 -1.95707 252.46 1.50293C263.7 5.14293 271.78 15.1629 279.58 24.8229C284.8 31.2829 290.2 37.9629 296.38 42.4629C302.66 47.0429 310.76 50.1629 318.6 53.1629C330.14 57.6029 342.06 62.2029 348.9 71.6029C355.66 80.8829 356.36 93.6029 357.04 105.883C357.5 114.323 357.98 123.043 360.42 130.543C362.72 137.643 367.14 144.423 371.82 151.603C378.66 162.083 385.72 172.943 385.72 185.003C385.72 197.063 378.66 207.923 371.82 218.403C367.14 225.583 362.72 232.343 360.42 239.463C357.98 246.963 357.5 255.683 357.04 264.123C356.36 276.403 355.66 289.103 348.9 298.403C342.06 307.803 330.14 312.383 318.6 316.823C310.76 319.843 302.66 322.963 296.38 327.523C290.2 332.023 284.8 338.703 279.6 345.163C271.78 354.843 263.7 364.843 252.48 368.483C241.78 371.963 229.6 368.723 217.84 365.603C209.56 363.403 200.98 361.143 192.88 361.143C184.78 361.143 176.2 363.423 167.92 365.603C159.76 367.763 151.4 369.983 143.48 369.983ZM192.88 359.683C201.18 359.683 209.84 361.983 218.22 364.203C230.32 367.403 241.76 370.443 252.04 367.103C262.86 363.583 270.8 353.763 278.48 344.243C283.76 337.703 289.22 330.963 295.54 326.343C301.98 321.643 310.18 318.503 318.1 315.443C329.44 311.083 341.16 306.563 347.74 297.523C354.24 288.583 354.94 276.103 355.6 264.023C356.08 255.503 356.56 246.683 359.06 238.983C361.42 231.703 366.1 224.523 370.62 217.583C377.34 207.283 384.28 196.623 384.28 184.983C384.28 173.343 377.34 162.703 370.62 152.383C366.1 145.443 361.42 138.263 359.06 130.983C356.56 123.303 356.08 114.483 355.6 105.943C354.94 93.8629 354.24 81.3829 347.74 72.4429C341.16 63.4029 329.44 58.8829 318.1 54.5229C310.18 51.4829 302 48.3229 295.54 43.6229C289.2 39.0029 283.74 32.2629 278.48 25.7229C270.8 16.2029 262.86 6.38293 252.04 2.86293C241.76 -0.477068 230.32 2.56293 218.22 5.76293C209.84 7.98293 201.18 10.2829 192.88 10.2829C184.58 10.2829 175.92 7.98293 167.54 5.76293C155.44 2.56293 144 -0.477068 133.72 2.86293C122.9 6.38293 114.96 16.2029 107.28 25.7229C102 32.2629 96.54 39.0029 90.22 43.6229C83.78 48.3229 75.58 51.4629 67.66 54.5229C56.32 58.8829 44.6 63.4029 38.02 72.4429C31.52 81.3829 30.82 93.8629 30.16 105.943C29.68 114.463 29.2 123.283 26.7 130.983C24.34 138.263 19.66 145.443 15.14 152.383C8.42 162.683 1.48 173.343 1.48 184.983C1.48 196.623 8.42 207.263 15.14 217.583C19.66 224.523 24.34 231.703 26.7 238.983C29.2 246.663 29.68 255.483 30.16 264.023C30.82 276.103 31.52 288.583 38.02 297.523C44.6 306.563 56.32 311.083 67.66 315.443C75.58 318.483 83.76 321.643 90.22 326.343C96.56 330.943 102.02 337.703 107.28 344.243C114.96 353.763 122.9 363.583 133.72 367.103C144 370.443 155.44 367.403 167.54 364.203C175.92 361.983 184.58 359.683 192.88 359.683Z" fill="#7A1E3A"/>
<path d="M239.06 360.202C231.4 360.202 223.44 358.102 215.66 356.042C208.04 354.022 200.18 351.942 192.9 351.942C185.62 351.942 177.74 354.022 170.14 356.042C158.82 359.042 147.1 362.142 136.48 358.702C125.34 355.082 117.58 345.462 110.06 336.162C105.06 329.962 100.32 324.102 94.7803 320.082C89.1403 315.982 82.0403 313.242 74.5203 310.342C63.4403 306.082 51.9603 301.662 45.1803 292.342C38.4803 283.122 37.8003 270.902 37.1403 259.102C36.7203 251.362 36.2803 243.362 34.0803 236.622C32.0203 230.262 27.9603 224.062 23.6803 217.482C17.1003 207.402 10.3203 196.982 10.3203 185.022C10.3203 173.062 17.1203 162.642 23.6803 152.562C27.9603 145.982 32.0203 139.782 34.0803 133.422C36.2603 126.682 36.7003 118.682 37.1403 110.942C37.8003 99.1223 38.4603 86.9223 45.1803 77.7023C51.9603 68.3823 63.4203 63.9623 74.5203 59.7023C82.0403 56.8023 89.1403 54.0823 94.7803 49.9823C100.32 45.9623 105.04 40.1023 110.06 33.9023C117.58 24.6023 125.34 14.9823 136.48 11.3623C147.1 7.90228 158.82 11.0223 170.14 14.0223C177.76 16.0423 185.62 18.1223 192.9 18.1223C200.18 18.1223 208.06 16.0423 215.66 14.0223C226.98 11.0223 238.7 7.92228 249.32 11.3623C260.46 14.9823 268.22 24.6023 275.74 33.9023C280.74 40.1023 285.48 45.9623 291.02 49.9823C296.66 54.0823 303.76 56.8223 311.28 59.7223C322.36 63.9823 333.82 68.4023 340.62 77.7223C347.32 86.9423 348 99.1623 348.66 110.962C349.08 118.702 349.52 126.702 351.72 133.442C353.78 139.802 357.84 146.002 362.12 152.582C368.7 162.662 375.48 173.082 375.48 185.042C375.48 197.002 368.68 207.422 362.12 217.502C357.84 224.082 353.78 230.282 351.72 236.642C349.54 243.382 349.1 251.382 348.66 259.122C348 270.942 347.34 283.142 340.62 292.362C333.84 301.682 322.38 306.102 311.28 310.362C303.76 313.262 296.66 315.982 291.02 320.082C285.48 324.102 280.76 329.962 275.74 336.162C268.22 345.462 260.46 355.082 249.32 358.702C246 359.782 242.56 360.222 239.06 360.222V360.202ZM192.88 340.182C200.64 340.182 208.58 342.282 216.26 344.322C226.84 347.122 236.84 349.782 245.5 346.962C254.64 344.002 261.28 335.782 268.3 327.082C273.14 321.082 278.14 314.882 284.08 310.562C290.12 306.182 297.62 303.282 304.88 300.482C315.26 296.482 325.06 292.722 330.6 285.082C336.08 277.542 336.66 267.122 337.26 256.062C337.7 248.242 338.14 240.162 340.48 232.962C342.7 226.122 347 219.542 351.14 213.182C357.02 204.162 363.1 194.842 363.1 185.002C363.1 175.162 357.02 165.842 351.14 156.822C346.98 150.462 342.7 143.862 340.48 137.042C338.14 129.842 337.7 121.762 337.26 113.942C336.66 102.902 336.08 92.4623 330.6 84.9223C325.04 77.2823 315.24 73.5223 304.88 69.5223C297.62 66.7223 290.1 63.8423 284.06 59.4423C278.12 55.1223 273.12 48.9223 268.28 42.9223C261.26 34.2223 254.62 26.0023 245.48 23.0423C236.82 20.2223 226.82 22.8823 216.24 25.6823C208.56 27.7223 200.62 29.8223 192.86 29.8223C185.1 29.8223 177.16 27.7223 169.48 25.6823C158.9 22.8823 148.9 20.2223 140.24 23.0423C131.1 26.0023 124.46 34.2223 117.44 42.9223C112.6 48.9223 107.6 55.1223 101.66 59.4423C95.6203 63.8223 88.1203 66.7223 80.8603 69.5223C70.4803 73.5223 60.6803 77.2823 55.1403 84.9223C49.6603 92.4623 49.0803 102.882 48.4803 113.942C48.0403 121.762 47.6003 129.842 45.2603 137.042C43.0403 143.882 38.7403 150.462 34.6003 156.822C28.7203 165.842 22.6403 175.162 22.6403 185.002C22.6403 194.842 28.7203 204.162 34.6003 213.182C38.7603 219.542 43.0403 226.142 45.2603 232.962C47.6003 240.162 48.0403 248.242 48.4803 256.062C49.0803 267.102 49.6603 277.542 55.1403 285.082C60.7003 292.722 70.5003 296.482 80.8603 300.482C88.1203 303.282 95.6403 306.162 101.66 310.562C107.6 314.882 112.6 321.082 117.44 327.082C124.46 335.782 131.1 344.002 140.24 346.962C148.9 349.782 158.9 347.122 169.48 344.322C177.16 342.282 185.1 340.182 192.86 340.182H192.88Z" fill="#7A1E3A"/>
<path d="M192.88 284.165C147.06 284.165 107.46 253.105 96.5801 208.645L99.9801 207.805C110.48 250.705 148.68 280.665 192.88 280.665C237.08 280.665 275.28 250.705 285.78 207.805L289.18 208.645C278.3 253.105 238.7 284.165 192.88 284.165Z" fill="#7A1E3A"/>
<path d="M285.78 162.204C275.28 119.304 237.08 89.3438 192.88 89.3438C148.68 89.3438 110.48 119.304 99.9801 162.204L96.5801 161.364C107.46 116.904 147.06 85.8438 192.88 85.8438C238.7 85.8438 278.3 116.904 289.18 161.364L285.78 162.204Z" fill="#7A1E3A"/>
<path d="M33.3203 185.002H117.38" stroke="#7A1E3A" stroke-miterlimit="10" stroke-width="2"/>
<path d="M52.2402 174.322H102.78" stroke="#7A1E3A" stroke-miterlimit="10" stroke-width="2"/>
<path d="M52.2402 195.682H102.78" stroke="#7A1E3A" stroke-miterlimit="10" stroke-width="2"/>
<path d="M352.419 185.002H268.359" stroke="#7A1E3A" stroke-miterlimit="10" stroke-width="2"/>
<path d="M333.499 174.322H282.959" stroke="#7A1E3A" stroke-miterlimit="10" stroke-width="2"/>
<path d="M333.499 195.682H282.959" stroke="#7A1E3A" stroke-miterlimit="10" stroke-width="2"/>
<path d="M76.9405 110.963L80.6005 120.923L90.4205 120.743L83.1605 127.303L86.2805 137.603L76.9405 131.183L67.6005 137.603L70.7205 127.303L63.4805 120.743L73.2805 120.923L76.9405 110.963Z" fill="#7A1E3A"/>
<path d="M308.8 110.963L312.46 120.923L322.28 120.743L315.04 127.303L318.16 137.603L308.8 131.183L299.46 137.603L302.58 127.303L295.34 120.743L305.16 120.923L308.8 110.963Z" fill="#7A1E3A"/>
<path d="M76.9405 236.363L80.6005 246.323L90.4205 246.143L83.1605 252.723L86.2805 263.003L76.9405 256.583L67.6005 263.003L70.7205 252.723L63.4805 246.143L73.2805 246.323L76.9405 236.363Z" fill="#7A1E3A"/>
<path d="M308.8 236.363L312.46 246.323L322.28 246.143L315.04 252.723L318.16 263.003L308.8 256.583L299.46 263.003L302.58 252.723L295.34 246.143L305.16 246.323L308.8 236.363Z" fill="#7A1E3A"/>
<path d="M152.64 153.863H157.74C159.2 153.863 160.62 153.763 162.02 153.543C163.4 153.343 164.68 152.943 165.82 152.343C166.96 151.763 167.88 150.923 168.58 149.843C169.28 148.763 169.62 147.363 169.62 145.623C169.62 143.403 168.74 141.563 166.96 140.103C165.18 138.643 163.02 137.923 160.44 137.923C158 137.923 156 138.583 154.4 139.903C152.8 141.223 151.76 142.863 151.28 144.803L134.08 141.263C134.92 138.063 136.16 135.343 137.84 133.083C139.5 130.823 141.48 129.003 143.78 127.603C146.08 126.203 148.62 125.183 151.44 124.523C154.26 123.863 157.22 123.523 160.36 123.523C163.5 123.523 166.78 123.923 169.8 124.723C172.82 125.523 175.48 126.783 177.78 128.483C180.08 130.183 181.9 132.323 183.26 134.903C184.62 137.483 185.3 140.543 185.3 144.083C185.3 148.183 184.22 151.683 182.06 154.603C179.9 157.523 176.78 159.403 172.68 160.223V160.543C174.9 160.823 176.86 161.483 178.58 162.523C180.28 163.563 181.72 164.863 182.9 166.383C184.08 167.903 184.98 169.643 185.6 171.603C186.22 173.543 186.54 175.603 186.54 177.763C186.54 181.443 185.82 184.683 184.4 187.463C182.98 190.243 181.06 192.563 178.66 194.403C176.26 196.243 173.44 197.623 170.22 198.523C166.98 199.423 163.56 199.883 159.96 199.883C153.36 199.883 147.68 198.363 142.92 195.303C138.16 192.243 135.02 187.423 133.48 180.803L149.96 176.943C150.52 179.583 151.64 181.663 153.34 183.203C155.04 184.723 157.56 185.503 160.9 185.503C164.24 185.503 166.82 184.623 168.46 182.843C170.1 181.063 170.9 178.803 170.9 176.023C170.9 173.943 170.46 172.323 169.6 171.183C168.72 170.043 167.6 169.183 166.22 168.623C164.82 168.063 163.26 167.743 161.52 167.623C159.78 167.523 158.04 167.463 156.3 167.463H152.66V153.903L152.64 153.863Z" fill="#7A1E3A"/>
<path d="M196.32 161.683C196.32 157.303 196.72 152.863 197.52 148.343C198.32 143.823 199.74 139.723 201.8 136.043C203.84 132.363 206.64 129.363 210.2 127.023C213.74 124.703 218.26 123.523 223.76 123.523C229.26 123.523 233.76 124.683 237.32 127.023C240.86 129.363 243.66 132.363 245.72 136.043C247.76 139.723 249.2 143.823 250 148.343C250.8 152.863 251.2 157.303 251.2 161.683C251.2 166.063 250.8 170.503 250 175.023C249.2 179.543 247.78 183.643 245.72 187.323C243.66 191.003 240.88 194.003 237.32 196.343C233.76 198.683 229.26 199.843 223.76 199.843C218.26 199.843 213.76 198.683 210.2 196.343C206.64 194.003 203.86 191.003 201.8 187.323C199.74 183.643 198.32 179.543 197.52 175.023C196.72 170.503 196.32 166.063 196.32 161.683ZM211.96 161.683C211.96 163.623 212.04 165.963 212.22 168.663C212.4 171.383 212.86 173.983 213.62 176.483C214.38 178.983 215.54 181.103 217.12 182.843C218.68 184.583 220.88 185.443 223.74 185.443C226.6 185.443 228.7 184.583 230.3 182.843C231.9 181.103 233.08 178.983 233.84 176.483C234.6 173.983 235.08 171.383 235.24 168.663C235.42 165.943 235.5 163.623 235.5 161.683C235.5 159.743 235.42 157.403 235.24 154.703C235.06 152.003 234.6 149.383 233.84 146.883C233.08 144.383 231.9 142.263 230.3 140.523C228.7 138.783 226.52 137.923 223.74 137.923C220.96 137.923 218.68 138.803 217.12 140.523C215.56 142.263 214.4 144.383 213.62 146.883C212.86 149.383 212.38 151.983 212.22 154.703C212.04 157.423 211.96 159.743 211.96 161.683Z" fill="#7A1E3A"/>
<path d="M130.66 210.725H144.6C146.92 210.725 149.18 211.085 151.34 211.805C153.5 212.525 155.42 213.605 157.08 215.085C158.74 216.565 160.08 218.385 161.08 220.605C162.08 222.825 162.58 225.425 162.58 228.425C162.58 231.425 162 234.085 160.86 236.285C159.72 238.505 158.24 240.325 156.42 241.785C154.6 243.225 152.6 244.305 150.38 245.025C148.16 245.745 146 246.105 143.86 246.105H130.68V210.745L130.66 210.725ZM141.64 240.385C143.6 240.385 145.46 240.165 147.2 239.705C148.94 239.265 150.48 238.565 151.76 237.605C153.06 236.665 154.08 235.425 154.84 233.905C155.58 232.385 155.96 230.545 155.96 228.385C155.96 226.225 155.62 224.425 154.96 222.885C154.3 221.345 153.38 220.105 152.18 219.165C150.98 218.225 149.6 217.525 147.98 217.065C146.36 216.625 144.6 216.385 142.66 216.385H136.92V240.345H141.62L141.64 240.385Z" fill="#7A1E3A"/>
<path d="M180.5 210.725H185.94L201.16 246.085H193.96L190.66 238.005H175.34L172.14 246.085H165.1L180.48 210.725H180.5ZM188.48 232.605L183.04 218.225L177.5 232.605H188.48Z" fill="#7A1E3A"/>
<path d="M210.559 230.945L197.279 210.725H205.159L213.839 224.805L222.619 210.725H230.099L216.819 230.945V246.065H210.519V230.945H210.559Z" fill="#7A1E3A"/>
<path d="M251.2 218.324C250.54 217.364 249.64 216.644 248.52 216.204C247.4 215.764 246.24 215.524 245 215.524C244.26 215.524 243.56 215.604 242.88 215.764C242.2 215.924 241.58 216.204 241.04 216.564C240.5 216.924 240.04 217.404 239.72 217.984C239.38 218.564 239.22 219.264 239.22 220.064C239.22 221.264 239.64 222.184 240.46 222.804C241.3 223.444 242.32 223.984 243.56 224.444C244.8 224.904 246.14 225.364 247.6 225.784C249.06 226.224 250.42 226.824 251.64 227.584C252.88 228.344 253.9 229.364 254.74 230.624C255.58 231.884 255.98 233.564 255.98 235.664C255.98 237.564 255.64 239.224 254.94 240.624C254.24 242.044 253.3 243.204 252.12 244.144C250.94 245.084 249.56 245.784 248 246.244C246.44 246.704 244.78 246.944 243.06 246.944C240.86 246.944 238.74 246.584 236.72 245.844C234.68 245.104 232.94 243.884 231.48 242.144L236.22 237.544C236.98 238.704 238 239.624 239.24 240.264C240.48 240.924 241.82 241.244 243.2 241.244C243.94 241.244 244.66 241.144 245.4 240.944C246.14 240.744 246.8 240.444 247.4 240.044C248 239.644 248.48 239.144 248.84 238.524C249.2 237.904 249.38 237.204 249.38 236.404C249.38 235.104 248.96 234.104 248.14 233.404C247.3 232.704 246.28 232.124 245.04 231.624C243.8 231.144 242.46 230.684 241 230.244C239.54 229.804 238.18 229.224 236.96 228.464C235.72 227.704 234.7 226.724 233.86 225.464C233.02 224.204 232.62 222.544 232.62 220.444C232.62 218.604 233 217.024 233.74 215.704C234.48 214.364 235.48 213.264 236.68 212.384C237.9 211.504 239.28 210.844 240.84 210.404C242.4 209.964 244 209.764 245.64 209.764C247.5 209.764 249.3 210.044 251.06 210.604C252.8 211.164 254.38 212.104 255.78 213.404L251.18 218.244L251.2 218.324Z" fill="#7A1E3A"/>
<path d="M154.021 59.8824L158.661 71.0024C158.241 71.5824 157.741 72.1224 157.161 72.6824C156.581 73.2424 155.921 73.7424 155.261 74.2424C154.581 74.7424 153.881 75.1824 153.141 75.6024C152.401 76.0224 151.701 76.3624 151.021 76.6424C149.101 77.4424 147.281 77.8224 145.521 77.8224C143.761 77.8224 142.141 77.4824 140.661 76.8224C139.181 76.1624 137.861 75.2424 136.741 74.0424C135.621 72.8424 134.701 71.4424 134.041 69.8424C133.341 68.1624 132.981 66.4824 132.961 64.8024C132.961 63.1224 133.221 61.5224 133.821 60.0424C134.421 58.5624 135.301 57.2024 136.481 56.0024C137.681 54.8024 139.121 53.8424 140.841 53.1224C142.921 52.2624 144.721 51.8024 146.261 51.7824C147.801 51.7624 149.201 52.0024 150.461 52.5424L149.261 55.7624C147.961 55.2624 146.701 55.0424 145.521 55.1424C144.341 55.2224 143.161 55.5024 142.021 55.9824C140.721 56.5224 139.661 57.2424 138.821 58.1624C137.981 59.0824 137.361 60.0824 136.941 61.2024C136.541 62.3224 136.361 63.5024 136.401 64.7624C136.441 66.0224 136.741 67.2624 137.241 68.5024C137.781 69.7824 138.481 70.8624 139.381 71.7624C140.281 72.6624 141.301 73.3624 142.421 73.8424C143.541 74.3224 144.721 74.5624 145.981 74.5824C147.241 74.5824 148.481 74.3424 149.741 73.8224C150.821 73.3624 151.801 72.8424 152.681 72.2424C153.561 71.6424 154.261 71.0024 154.781 70.3424L152.161 64.0624L147.161 66.1424L145.961 63.2824L154.021 59.9224V59.8824Z" fill="#7A1E3A"/>
<path d="M164.602 46.4434L167.882 45.9434L171.142 67.0034L182.222 65.2834L182.702 68.3434L168.342 70.5634L164.602 46.4234V46.4434Z" fill="#7A1E3A"/>
<path d="M200.742 69.1828C198.882 69.0628 197.202 68.6228 195.682 67.8628C194.162 67.1028 192.882 66.1228 191.842 64.9028C190.802 63.6828 190.022 62.2628 189.482 60.6628C188.942 59.0628 188.742 57.3628 188.862 55.5428C188.982 53.7228 189.402 52.0628 190.142 50.5428C190.882 49.0228 191.842 47.7228 193.022 46.6428C194.202 45.5628 195.602 44.7628 197.202 44.2028C198.802 43.6428 200.542 43.4428 202.402 43.5628C204.262 43.6828 205.942 44.1228 207.462 44.8828C208.982 45.6428 210.262 46.6228 211.302 47.8428C212.342 49.0628 213.122 50.4828 213.662 52.0828C214.202 53.6828 214.402 55.3828 214.282 57.2028C214.162 59.0228 213.742 60.6828 213.002 62.2028C212.262 63.7228 211.302 65.0228 210.122 66.1028C208.942 67.1828 207.542 67.9828 205.942 68.5428C204.342 69.1028 202.602 69.3028 200.742 69.1828ZM200.942 66.1028C202.342 66.2028 203.622 66.0228 204.782 65.5828C205.942 65.1428 206.942 64.5028 207.802 63.6828C208.662 62.8628 209.342 61.8828 209.862 60.7228C210.382 59.5628 210.682 58.3228 210.762 57.0028C210.842 55.6628 210.722 54.4028 210.362 53.1828C210.002 51.9628 209.442 50.9028 208.702 49.9828C207.962 49.0628 207.042 48.3028 205.942 47.7028C204.842 47.1228 203.602 46.7828 202.202 46.6828C200.802 46.6028 199.522 46.7628 198.362 47.2028C197.202 47.6428 196.202 48.2828 195.342 49.1028C194.482 49.9228 193.802 50.9028 193.282 52.0628C192.762 53.2228 192.462 54.4628 192.382 55.7828C192.302 57.1228 192.422 58.3828 192.782 59.6028C193.142 60.8028 193.702 61.8828 194.442 62.8028C195.182 63.7228 196.102 64.4828 197.202 65.0828C198.282 65.6628 199.542 66.0028 200.942 66.1028Z" fill="#7A1E3A"/>
<path d="M226.421 46.7832L229.641 48.0232L227.661 68.1832H227.721L240.101 52.0632L243.641 53.4232L241.981 73.7032H242.041L254.101 57.4432L257.321 58.6832L241.901 78.9232L238.621 77.6632L240.281 56.9432H240.221L227.581 73.4232L224.301 72.1632L226.421 46.8032V46.7832Z" fill="#7A1E3A"/>
<path d="M105.221 281.083L96.441 288.003C95.821 287.783 95.201 287.463 94.561 287.083C93.921 286.683 93.301 286.243 92.681 285.763C92.061 285.283 91.481 284.763 90.941 284.203C90.401 283.643 89.901 283.103 89.481 282.563C88.301 281.063 87.481 279.503 87.061 277.943C86.641 276.363 86.521 274.843 86.741 273.343C86.961 271.863 87.461 270.463 88.261 269.143C89.061 267.823 90.081 266.663 91.341 265.683C92.661 264.643 94.081 263.903 95.581 263.463C97.081 263.023 98.581 262.883 100.061 263.043C101.541 263.203 102.961 263.643 104.341 264.423C105.721 265.183 106.941 266.243 108.001 267.603C109.301 269.243 110.141 270.743 110.561 272.103C110.961 273.463 111.081 274.783 110.921 276.063L107.741 275.803C107.861 274.503 107.741 273.343 107.361 272.303C106.981 271.263 106.441 270.283 105.741 269.383C104.941 268.363 104.021 267.583 103.001 267.063C101.981 266.543 100.921 266.223 99.821 266.143C98.721 266.063 97.621 266.203 96.501 266.563C95.381 266.923 94.341 267.483 93.381 268.263C92.381 269.063 91.581 269.963 91.001 271.003C90.421 272.043 90.041 273.103 89.901 274.243C89.761 275.363 89.821 276.483 90.121 277.603C90.421 278.723 90.961 279.783 91.741 280.763C92.421 281.623 93.121 282.363 93.901 283.003C94.661 283.643 95.401 284.103 96.121 284.403L101.081 280.503L97.981 276.563L100.241 274.783L105.261 281.143L105.221 281.083Z" fill="#7A1E3A"/>
<path d="M121.54 283.063L112.76 293.823C112.32 294.363 111.92 295.003 111.6 295.703C111.26 296.403 111.08 297.163 111.02 297.943C110.96 298.723 111.08 299.503 111.4 300.263C111.7 301.043 112.28 301.763 113.1 302.443C113.92 303.123 114.74 303.523 115.56 303.663C116.38 303.803 117.16 303.783 117.92 303.563C118.68 303.343 119.36 303.003 119.98 302.543C120.6 302.083 121.14 301.563 121.58 301.023L130.36 290.263L132.74 292.203L123.66 303.343C122.82 304.363 121.9 305.163 120.86 305.703C119.84 306.263 118.76 306.583 117.66 306.703C116.54 306.823 115.44 306.703 114.34 306.363C113.24 306.023 112.22 305.463 111.26 304.683C110.3 303.903 109.54 303.003 108.98 302.003C108.42 301.003 108.08 299.943 107.98 298.823C107.88 297.703 107.98 296.603 108.32 295.483C108.66 294.363 109.24 293.303 110.08 292.263L119.16 281.123L121.54 283.063Z" fill="#7A1E3A"/>
<path d="M146.781 299.941L149.301 301.101L148.581 325.741L145.321 324.241L145.621 318.201L135.841 313.681L131.461 317.821L128.201 316.321L146.781 299.961V299.941ZM145.741 315.281L146.281 304.061H146.221L137.961 311.681L145.741 315.281Z" fill="#7A1E3A"/>
<path d="M164.48 306.643L172.3 308.163C173.72 308.443 174.86 308.863 175.7 309.423C176.54 309.983 177.18 310.623 177.6 311.323C178.02 312.023 178.26 312.763 178.32 313.543C178.38 314.323 178.36 315.063 178.22 315.763C178.08 316.483 177.82 317.143 177.44 317.743C177.06 318.343 176.58 318.883 176 319.323C175.42 319.763 174.76 320.103 174.02 320.343C173.26 320.583 172.46 320.663 171.62 320.583L175.96 331.943L172.2 331.223L168.44 320.323L165.08 319.663L163.18 329.463L160.16 328.883L164.46 306.643H164.48ZM165.6 317.043L169.56 317.803C170.14 317.923 170.74 317.983 171.34 318.003C171.94 318.003 172.48 317.943 172.98 317.783C173.48 317.623 173.9 317.323 174.28 316.903C174.64 316.483 174.9 315.903 175.04 315.143C175.18 314.383 175.16 313.743 174.98 313.223C174.8 312.703 174.5 312.263 174.1 311.923C173.7 311.583 173.22 311.323 172.66 311.103C172.1 310.903 171.52 310.743 170.94 310.623L166.98 309.863L165.6 317.023V317.043Z" fill="#7A1E3A"/>
<path d="M194.402 310.001L197.182 309.941L207.382 332.381L203.802 332.461L201.402 326.921L190.622 327.161L188.502 332.801L184.922 332.881L194.382 310.001H194.402ZM200.222 324.241L195.762 313.941H195.702L191.642 324.441L200.222 324.241Z" fill="#7A1E3A"/>
<path d="M213.262 308.782L217.142 307.722L234.082 322.402H234.142L229.242 304.422L232.202 303.602L238.182 325.462L234.422 326.482L217.342 311.842H217.282L222.182 329.822L219.222 330.622L213.262 308.762V308.782Z" fill="#7A1E3A"/>
<path d="M246.24 299.723L239.92 303.363L238.48 300.863L253.8 292.043L255.24 294.543L248.92 298.183L258.78 315.323L256.12 316.863L246.26 299.723H246.24Z" fill="#7A1E3A"/>
<path d="M259.141 287.842L270.001 278.062L271.921 280.202L263.341 287.943L267.861 292.962L275.841 285.762L277.761 287.902L269.781 295.102L274.641 300.503L283.661 292.382L285.581 294.522L274.281 304.702L259.121 287.862L259.141 287.842Z" fill="#7A1E3A"/>
<path d="M275.58 271.822L284.5 260.242L286.78 262.002L279.74 271.162L285.1 275.282L291.66 266.762L293.94 268.522L287.38 277.042L293.14 281.482L300.54 271.862L302.82 273.622L293.54 285.662L275.58 271.842V271.822Z" fill="#7A1E3A"/>
</svg>